<svg xmlns="http://www.w3.org/2000/svg" viewBox="0 0 512 512" style="height: 512px; width: 512px;"><circle cx="256" cy="256" r="256" fill="#000" fill-opacity="1"></circle><g class="" transform="translate(0,0)" style="touch-action: none;"><g><path d="M255.625 20.063C204.591 20.063 158.445 40.743 125.095 74.187L177.405 133.407C199.193 116.939 226.305 107.157 255.655 107.157C258.838 107.157 262 107.274 265.125 107.5L277.75 21.375C270.497 20.509 263.114 20.062 255.625 20.062Z" class="" fill="#7ed321" fill-opacity="1"></path><path d="M296.188 24.563L283.656 110.219C304.376 114.779 323.236 124.274 338.969 137.437L393.936 82.467C368.726 53.861 334.741 33.203 296.186 24.561Z" class="" fill="#50e3c2" fill-opacity="1"></path><path d="M112.53 88.186C89.666 116.332 74.91 151.356 71.906 189.718L130.719 201.123C136.843 179.933 148.213 160.948 163.343 145.685L112.53 88.185Z" class="" fill="#f8e71c" fill-opacity="1"></path><path d="M405.625 97.218L352.405 150.436C373.08 173.466 385.688 203.872 385.688 237.186C385.688 241.699 385.451 246.164 385 250.561L431.47 259.591C436.928 242.157 439.875 223.594 439.875 204.341C439.875 164.368 427.19 127.393 405.625 97.217Z" class="" fill="#4a90e2" fill-opacity="1"></path><path d="M255.655 125.842C194.055 125.842 144.312 175.586 144.312 237.186C144.312 298.786 194.056 348.529 255.656 348.529C317.256 348.529 367 298.789 367 237.187C367 175.585 317.256 125.843 255.656 125.843Z" class="" fill="#ffffff" fill-opacity="1"></path><path d="M247.687 156.404C245.387 161.187 244.094 166.524 244.094 172.184C244.094 192.352 260.428 208.717 280.594 208.717C297.981 208.717 312.539 196.553 316.219 180.277C327.379 193.104 334.155 209.849 334.155 228.184C334.155 268.517 301.455 301.216 261.125 301.216C220.792 301.216 188.093 268.516 188.093 228.183C188.093 192.443 213.775 162.713 247.687 156.403Z" class="" fill="#000000" fill-opacity="1"></path><path d="M71.407 208.654C72.631 262.036 96.501 309.764 133.781 342.624L155.907 320.498C137.014 297.918 125.627 268.863 125.627 237.185C125.627 231.163 126.047 225.242 126.845 219.435L71.407 208.655Z" class="" fill="#e2910b" fill-opacity="1"></path><path d="M257.469 224.592C244.359 224.592 233.719 235.202 233.719 248.312C233.719 261.419 244.359 272.062 257.469 272.062C270.576 272.06 281.186 261.419 281.186 248.31C281.186 235.202 270.576 224.592 257.468 224.592Z" class="" fill="#ffffff" fill-opacity="1"></path><path d="M381.749 268.967C376.101 291.372 364.625 311.455 349.029 327.559L368.749 349.872C393.079 330.942 412.506 306.032 424.874 277.342L381.749 268.966Z" class="" fill="#9013fe" fill-opacity="1"></path><path d="M168.905 333.934L148.5 354.344C170.61 370.144 196.366 381.169 224.28 385.938L227.47 364.125C205.287 359.205 185.25 348.609 168.906 333.937Z" class="" fill="#d02102" fill-opacity="1"></path><path d="M335.125 340.028C313.133 357.061 285.56 367.218 255.655 367.218C252.411 367.218 249.185 367.108 245.999 366.873L242.874 388.153C247.088 388.441 251.337 388.593 255.624 388.593C291.529 388.593 325.004 378.333 353.312 360.623L335.124 340.029Z" class="" fill="#bd10e0" fill-opacity="1"></path><path d="M398.093 348.778C388.393 358.348 377.735 366.93 366.28 374.404C375.87 405.489 371.64 432.898 365.72 459.81C392.057 425.97 411.557 390.836 398.094 348.78Z" class="" fill="#9013fe" fill-opacity="1"></path><path d="M113.218 348.873C99.812 390.889 119.305 425.995 145.623 459.811C139.708 432.926 135.5 405.544 145.06 374.498C133.592 367.028 122.928 358.44 113.217 348.873Z" class="" fill="#d0021b" fill-opacity="1"></path><path d="M350.842 383.561C340.288 389.186 329.182 393.881 317.622 397.591C324.897 428.494 323.476 455.788 320.06 480.717C341.613 452.909 354.264 420.89 350.842 383.559Z" class="" fill="#4a90e2" fill-opacity="1"></path><path d="M160.498 383.591C157.086 420.909 169.733 452.918 191.278 480.717C187.865 455.795 186.45 428.511 193.718 397.622C182.156 393.916 171.058 389.212 160.498 383.592Z" class="" fill="#f5a623" fill-opacity="1"></path><path d="M300.248 402.341C289.992 404.648 279.43 406.157 268.654 406.841C273.698 436.598 275.034 465.855 273.934 494.779C286.23 464.966 296.14 434.473 300.248 402.343Z" class="" fill="#7ed321" fill-opacity="1"></path><path d="M211.123 402.373C215.233 434.491 225.113 464.976 237.403 494.779C236.305 465.865 237.668 436.619 242.717 406.874C231.94 406.196 221.38 404.674 211.122 402.374Z" class="selected" fill="#f8e71c" fill-opacity="1"></path></g></g></svg>